<svg id="icons" xmlns="http://www.w3.org/2000/svg" viewBox="0 0 340 340"><path d="M327.937,94.488,243.434,14.6,35.495,12.322A23.176,23.176,0,0,0,12.063,35.5V304.761a23.176,23.176,0,0,0,23.176,23.176H304.76a23.177,23.177,0,0,0,23.177-23.176Z" style="fill:#fff"/><path d="M243.434,14.6l84.5,79.889h-67.62a15.125,15.125,0,0,1-15.124-15.125Z" style="fill:#88b0ea"/><path d="M304.76,331.938H35.239A27.208,27.208,0,0,1,8.063,304.761V35.239A27.207,27.207,0,0,1,35.239,8.063H235.2a14.011,14.011,0,0,1,14,14V79.363a11.137,11.137,0,0,0,11.124,11.124h48.07c5.2.089,5.31,7.9,0,8H260.317a19.146,19.146,0,0,1-19.124-19.124v-57.3a6,6,0,0,0-6-6H35.239A19.2,19.2,0,0,0,16.063,35.239V304.761a19.2,19.2,0,0,0,19.176,19.177H304.76a19.2,19.2,0,0,0,19.177-19.177v-200.4A19.894,19.894,0,0,0,318.16,90.4L256.916,32.85c-3.777-3.6,1.588-9.4,5.479-5.83.084.081,61.3,57.591,61.372,57.668a27.95,27.95,0,0,1,8.17,19.669v200.4A27.208,27.208,0,0,1,304.76,331.938Z" style="fill:#383a49"/><path d="M108.873,140.644h31.483a4,4,0,0,0,4-4V105.161a4,4,0,0,0-4-4H108.873a4,4,0,0,0-4,4v31.483A4,4,0,0,0,108.873,140.644Zm4-31.483h23.483v23.483H112.873Z" style="fill:#383a49"/><path d="M140.356,199.356H108.873a4,4,0,0,0-4,4v31.483a4,4,0,0,0,4,4h31.483a4,4,0,0,0,4-4V203.356A4,4,0,0,0,140.356,199.356Zm-4,31.483H112.873V207.356h23.483Z" style="fill:#383a49"/><path d="M238.551,101.161H207.068a4,4,0,0,0-4,4v31.483a4,4,0,0,0,4,4h31.483a4,4,0,0,0,4-4V105.161A4,4,0,0,0,238.551,101.161Zm-4,31.483H211.068V109.161h23.483Z" style="fill:#383a49"/><path d="M108.873,174H116.1v11.723a4,4,0,0,0,8,0V174h7.225a4,4,0,0,0,0-8h-18.45v-8.814h7.444c5.254-.087,5.261-7.912,0-8H108.873a4,4,0,0,0-4,4V170A4,4,0,0,0,108.873,174Z" style="fill:#383a49"/><path d="M184.447,147.916c-.091-5.259-7.911-5.256-8,0v3.343H163.553v-6.207a4,4,0,0,0-8,0V166h-8.6a4,4,0,1,0,0,8h21.2v7.416c.088,5.255,7.91,5.26,8,0V170a4,4,0,0,0-4-4h-8.6v-6.741H198c5.253-.088,5.261-7.911,0-8H184.447Z" style="fill:#383a49"/><path d="M132.107,185.723a4,4,0,0,0,4,4h16.415v4.612c.087,5.254,7.912,5.26,8,0v-8.612a4,4,0,0,0-4-4H136.107A4,4,0,0,0,132.107,185.723Z" style="fill:#383a49"/><path d="M156.522,118.27a4,4,0,0,0,4-4v-5.109h27.022v6.763h-7.705a4,4,0,0,0,0,8h7.705v8.687c.081,5.246,7.914,5.266,8,0v-27.45a4,4,0,0,0-4-4H156.522a4,4,0,0,0-4,4v9.109A4,4,0,0,0,156.522,118.27Z" style="fill:#383a49"/><path d="M238.551,149.186a4,4,0,0,0-4,4v9.544H218.738v-9.544a4,4,0,1,0-8,0v25.028H207.72c-5.256.089-5.259,7.911,0,8h7.018a4,4,0,0,0,4-4V170.73h19.813a4,4,0,0,0,4-4V153.186A4,4,0,0,0,238.551,149.186Z" style="fill:#383a49"/><path d="M166.411,222.1c5.1-.347,3.864-5.418,4-8.932h22.317a4,4,0,0,0,4-4V169.3a4,4,0,0,0-4-4H185.71a4,4,0,0,0,0,8h3.018v31.873H156.522a4,4,0,0,0,0,8h5.889V218.1A4,4,0,0,0,166.411,222.1Z" style="fill:#383a49"/><path d="M180.447,217.13a4,4,0,0,0-4,4v9.709H156.522c-5.248.086-5.264,7.911,0,8h23.924a4,4,0,0,0,4-4V221.13A4,4,0,0,0,180.447,217.13Z" style="fill:#383a49"/><path d="M238.551,205.806a4,4,0,0,0-4,4v21.033H198.482V221.13a4,4,0,0,0-8,0v13.709a4,4,0,0,0,4,4h44.069a4,4,0,0,0,4-4V209.806A4,4,0,0,0,238.551,205.806Z" style="fill:#383a49"/><path d="M238.551,192.09H222.809a4,4,0,0,0-4,4v9.078h-7.741V196.09c-.089-5.254-7.911-5.26-8,0v13.078a4,4,0,0,0,4,4h11.741v7a4,4,0,0,0,8,0V200.09h11.742C243.808,200,243.808,192.179,238.551,192.09Z" style="fill:#383a49"/><path d="M238.551,178.214H229.42a4,4,0,0,0,0,8h9.131C243.806,186.125,243.81,178.3,238.551,178.214Z" style="fill:#383a49"/><path d="M124.614,116.9c-5.257.089-5.257,7.911,0,8C129.872,124.813,129.872,116.991,124.614,116.9Z" style="fill:#383a49"/><path d="M124.724,222.1c5.253-.233,5.039-8.052-.219-8C119.252,214.334,119.466,222.153,124.724,222.1Z" style="fill:#383a49"/><path d="M222.809,124.9c5.258-.09,5.257-7.912,0-8C217.551,116.992,217.552,124.814,222.809,124.9Z" style="fill:#383a49"/><path d="M144.677,153.186c-.09-5.258-7.911-5.257-8,0C136.767,158.444,144.588,158.443,144.677,153.186Z" style="fill:#383a49"/><path d="M176.153,194.841c-.09-5.258-7.911-5.257-8,0C168.243,200.1,176.064,200.1,176.153,194.841Z" style="fill:#383a49"/><path d="M160.523,130.312c-.09-5.258-7.911-5.257-8,0C152.612,135.57,160.434,135.569,160.523,130.312Z" style="fill:#383a49"/><path d="M176.917,130.312c-.09-5.258-7.911-5.257-8,0C169.007,135.57,176.828,135.569,176.917,130.312Z" style="fill:#383a49"/></svg>